# xmcd
#
# Track frame offsets: 
#        150
#        17005
#        38743
#        55131
#        72123
#        85517
#
# Disc length: 1377 seconds
#
# Revision: 2
# Processed by: cddbd v1.5.1PL2 Copyright (c) Steve Scherf et al.
# Submitted via: ExactAudioCopy v0.95b3
#
DISCID=3d055f06
DTITLE=Erkan and Stefan vs. Ali Kahn - Krass
DYEAR=1998
DGENRE=Hip-Hop
TTITLE0=Krass (Radio Edit)
TTITLE1=Krass (Klub Mixz)
TTITLE2=Krass (Instrumental)
TTITLE3=Krass (Headnut Party)
TTITLE4=Krass (Videorecorder)
TTITLE5=Krass (Traumfrau)
EXTD=
EXTT0=
EXTT1=
EXTT2=
EXTT3=
EXTT4=
EXTT5=
PLAYORDER=
